<svg xmlns="http://www.w3.org/2000/svg" width="512" height="512" viewBox="0 0 512 512">
  <defs><linearGradient id="g" x1="0" y1="0" x2="1" y2="1">
    <stop offset="0" stop-color="#ff9138"/><stop offset="1" stop-color="#e85d00"/></linearGradient></defs>
  <rect width="512" height="512" rx="112" fill="url(#g)"/>
  <!-- 重なった書類（束）：後ろ2枚＋前面1枚 -->
  <rect x="96"  y="92"  width="200" height="250" rx="20" fill="#ffffff" opacity="0.45"/>
  <rect x="126" y="122" width="200" height="250" rx="20" fill="#ffffff" opacity="0.72"/>
  <rect x="156" y="152" width="200" height="250" rx="20" fill="#ffffff"/>
  <!-- 前面の書類の文字行（紺＝ブランドと連動） -->
  <g fill="#14315e">
    <rect x="182" y="198" width="148" height="14" rx="7"/>
    <rect x="182" y="238" width="148" height="14" rx="7"/>
    <rect x="182" y="278" width="148" height="14" rx="7"/>
    <rect x="182" y="318" width="92"  height="14" rx="7"/>
  </g>
  <!-- 白いスパークル（報告書アイコンと対の装飾） -->
  <path d="M400 150 l8 22 l22 8 l-22 8 l-8 22 l-8 -22 l-22 -8 l22 -8 z" fill="#ffffff" opacity="0.92"/>
</svg>
